HIERARCHY
ROOT Hips
{
	OFFSET 0.000000 0.000000 0.000000
	CHANNELS 6 Xposition Yposition Zposition Xrotation Yrotation Zrotation
	JOINT Chest
	{
		OFFSET 0.000000 0.009282 11.569106
		CHANNELS 3 Xrotation Yrotation Zrotation
		JOINT Chest2
		{
			OFFSET 0.000000 -0.016863 9.269641
			CHANNELS 3 Xrotation Yrotation Zrotation
			JOINT Chest3
			{
				OFFSET 0.000000 0.000000 8.374491
				CHANNELS 3 Xrotation Yrotation Zrotation
				JOINT Chest4
				{
					OFFSET 0.000000 0.000000 8.374493
					CHANNELS 3 Xrotation Yrotation Zrotation
					JOINT Neck
					{
						OFFSET 0.000000 -0.000001 12.152554
						CHANNELS 3 Xrotation Yrotation Zrotation
						JOINT Head
						{
							OFFSET 0.000000 -0.040100 7.802319
							CHANNELS 3 Xrotation Yrotation Zrotation
							End Site
							{
								OFFSET 0.000000 -0.020946 14.853096
							}
						}
					}
					JOINT RightCollar
					{
						OFFSET -2.894404 0.000000 6.791374
						CHANNELS 3 Xrotation Yrotation Zrotation
						JOINT RightShoulder
						{
							OFFSET -13.574684 0.000000 0.000000
							CHANNELS 3 Xrotation Yrotation Zrotation
							JOINT RightElbow
							{
								OFFSET -23.923903 0.000000 0.000000
								CHANNELS 3 Xrotation Yrotation Zrotation
								JOINT RightWrist
								{
									OFFSET -19.846718 -0.012765 0.000000
									CHANNELS 3 Xrotation Yrotation Zrotation
									End Site
									{
										OFFSET -14.973145 0.000000 0.000000
									}
								}
							}
						}
					}
					JOINT LeftCollar
					{
						OFFSET 2.894404 0.000000 6.791374
						CHANNELS 3 Xrotation Yrotation Zrotation
						JOINT LeftShoulder
						{
							OFFSET 13.574684 0.000000 0.000000
							CHANNELS 3 Xrotation Yrotation Zrotation
							JOINT LeftElbow
							{
								OFFSET 23.923903 0.000000 0.000000
								CHANNELS 3 Xrotation Yrotation Zrotation
								JOINT LeftWrist
								{
									OFFSET 19.846718 -0.012765 0.000000
									CHANNELS 3 Xrotation Yrotation Zrotation
									End Site
									{
										OFFSET 14.973145 0.000000 0.000000
									}
								}
							}
						}
					}
				}
			}
		}
	}
	JOINT RightHip
	{
		OFFSET -9.469263 -0.004642 0.045487
		CHANNELS 3 Xrotation Yrotation Zrotation
		JOINT RightKnee
		{
			OFFSET 0.000000 -0.002666 -40.478676
			CHANNELS 3 Xrotation Yrotation Zrotation
			JOINT RightAnkle
			{
				OFFSET 0.000000 -0.049110 -35.224068
				CHANNELS 3 Xrotation Yrotation Zrotation
				JOINT RightToe
				{
					OFFSET 0.000000 -12.539530 -6.151390
					CHANNELS 3 Xrotation Yrotation Zrotation
					End Site
					{
						OFFSET 0.000000 -5.044995 -1.291870
					}
				}
			}
		}
	}
	JOINT LeftHip
	{
		OFFSET 9.469263 -0.004642 0.045487
		CHANNELS 3 Xrotation Yrotation Zrotation
		JOINT LeftKnee
		{
			OFFSET 0.000000 -0.002666 -40.478676
			CHANNELS 3 Xrotation Yrotation Zrotation
			JOINT LeftAnkle
			{
				OFFSET 0.000000 -0.049110 -35.224068
				CHANNELS 3 Xrotation Yrotation Zrotation
				JOINT LeftToe
				{
					OFFSET 0.000000 -12.539530 -6.151390
					CHANNELS 3 Xrotation Yrotation Zrotation
					End Site
					{
						OFFSET 0.000000 -5.044995 -1.291870
					}
				}
			}
		}
	}
}
MOTION
Frames: 17
Frame Time: 0.016667
-19.326414 -8.039110 83.076347 3.377593 7.073846 -113.183761 5.515134 1.070496 8.276109 2.464133 0.386897 3.665803 2.464134 0.386897 3.665803 1.850493 0.275410 2.750955 16.822201 -5.063601 -7.855772 -5.170043 -6.474420 -16.110104 0.593690 -12.913644 -16.045598 -18.151118 -77.062040 -5.221453 17.420302 1.588343 0.938475 -13.268636 19.610713 24.761000 9.090637 4.646283 -19.944076 0.873992 76.048364 -14.662522 5.560853 -0.898377 -0.172996 12.138482 -22.061446 -18.870059 9.255436 0.076328 -5.608386 5.205707 -1.551005 -1.206379 -6.181002 1.684086 0.602156 0.004342 -0.103410 -0.034154 8.405847 -0.555115 -1.336571 4.095635 0.140510 -5.340158 -4.595553 -0.629459 3.665728 0.057183 0.170726 0.038729 
-19.318422 -8.021928 83.071289 3.370504 7.125413 -113.115637 5.538005 1.061731 8.281562 2.474012 0.381460 3.666947 2.474013 0.381459 3.666943 1.857871 0.271267 2.751796 16.744550 -5.008996 -7.841486 -5.306583 -6.371153 -16.068035 0.610279 -12.913149 -16.024169 -18.101260 -77.077606 -5.153396 17.359798 1.681740 0.666941 -13.223157 19.550441 24.683535 9.080233 4.667771 -19.936030 0.834134 76.093703 -14.571507 5.659624 -0.970749 -0.056506 12.230794 -22.095590 -18.834892 9.262025 0.090846 -5.630216 5.306114 -1.578557 -1.231658 -6.247091 1.734344 0.578053 0.006232 -0.096609 -0.034032 8.355479 -0.544887 -1.448234 4.277756 0.127677 -5.362646 -4.685957 -0.654634 3.698021 0.053984 0.161990 0.035280 
-19.315199 -8.006356 83.066650 3.357952 7.165090 -113.031810 5.544552 1.048849 8.280167 2.477224 0.374533 3.666115 2.477224 0.374533 3.666114 1.860238 0.266055 2.751146 16.676317 -4.950084 -7.823927 -5.425204 -6.262360 -16.017859 0.628623 -12.920391 -16.010392 -18.160192 -77.070454 -5.188751 17.339837 1.763965 0.396650 -13.157345 19.475168 24.587455 9.085191 4.688942 -19.931696 0.668369 76.148365 -14.354232 5.772071 -1.036362 0.046663 12.312301 -22.089814 -18.787542 9.275555 0.106470 -5.662898 5.373647 -1.609272 -1.271409 -6.300561 1.775306 0.568898 0.007652 -0.086338 -0.034732 8.300912 -0.526903 -1.582707 4.446963 0.109281 -5.389968 -4.770997 -0.680373 3.746754 0.050556 0.152283 0.034174 
-19.315779 -7.997805 83.062630 3.345058 7.199833 -112.935368 5.541016 1.029133 8.272746 2.476399 0.363743 3.662722 2.476400 0.363743 3.662725 1.859552 0.257982 2.748561 16.618388 -4.885026 -7.804101 -5.523983 -6.144471 -15.960694 0.631207 -12.909772 -16.009041 -18.315374 -77.047348 -5.343056 17.403711 1.840093 0.146386 -13.080349 19.390175 24.491151 9.077199 4.724211 -19.927524 0.430049 76.207262 -14.041876 5.875127 -1.092741 0.136753 12.409427 -22.026677 -18.707156 9.297686 0.121255 -5.701818 5.416352 -1.636090 -1.320517 -6.339913 1.802730 0.556952 0.006513 -0.074241 -0.034744 8.238637 -0.508631 -1.735543 4.615221 0.087764 -5.406432 -4.849140 -0.705128 3.769544 0.045390 0.144963 0.031575 
-19.314014 -7.991025 83.059158 3.329149 7.231471 -112.830422 5.527302 1.002828 8.259245 2.471254 0.351002 3.656460 2.471254 0.351002 3.656459 1.855614 0.248481 2.743807 16.573712 -4.813698 -7.778358 -5.597602 -6.018866 -15.889740 0.642020 -12.894683 -15.988477 -18.583924 -76.991545 -5.617746 17.499327 1.889905 -0.065345 -12.996631 19.314593 24.386922 9.067312 4.769269 -19.908588 0.202581 76.260879 -13.732294 5.911743 -1.126354 0.201375 12.611707 -21.863550 -18.521002 9.317181 0.139542 -5.768331 5.455271 -1.667321 -1.362596 -6.378474 1.825574 0.551788 0.006427 -0.059930 -0.033789 8.176683 -0.478364 -1.881330 4.775255 0.056071 -5.407813 -4.919301 -0.724725 3.817549 0.038211 0.135561 0.031610 
-19.314173 -7.985391 83.055626 3.311983 7.263126 -112.717574 5.517878 0.983198 8.254535 2.467064 0.341220 3.653943 2.467063 0.341220 3.653940 1.852410 0.241180 2.741880 16.535231 -4.752532 -7.748652 -5.661401 -5.913821 -15.815001 0.645344 -12.891864 -15.973150 -18.818394 -76.901674 -5.851240 17.597574 1.895773 -0.234794 -12.919019 19.217874 24.268557 9.046598 4.789932 -19.908934 0.041753 76.331216 -13.507302 5.904153 -1.191679 0.253758 12.866526 -21.484509 -18.166135 9.350284 0.153395 -5.851197 5.467810 -1.689119 -1.393790 -6.407761 1.843684 0.544134 0.008213 -0.049112 -0.031589 8.117692 -0.455465 -2.003894 4.921076 0.027302 -5.405336 -4.979528 -0.734855 3.813247 0.032519 0.125448 0.030340 
-19.315111 -7.971831 83.051811 3.297317 7.295885 -112.597472 5.519291 0.961707 8.251519 2.466785 0.331556 3.652714 2.466786 0.331556 3.652713 1.852145 0.233938 2.740919 16.500101 -4.699880 -7.714096 -5.720455 -5.826330 -15.734398 0.628547 -12.882468 -15.959666 -18.921851 -76.776831 -5.957778 17.731330 1.867474 -0.344532 -12.815591 19.052037 24.073659 8.991886 4.821783 -19.917124 -0.103828 76.398931 -13.299599 5.865559 -1.263876 0.273430 13.201533 -20.898139 -17.673698 9.406203 0.147451 -5.913461 5.442331 -1.693759 -1.455870 -6.425867 1.853199 0.534074 0.012505 -0.038274 -0.026812 8.075658 -0.434876 -2.085069 5.045109 -0.006663 -5.437352 -5.033671 -0.739199 3.823204 0.029033 0.114350 0.029264 
-19.321920 -7.954878 83.048401 3.285445 7.329345 -112.474617 5.517344 0.937865 8.248126 2.465044 0.320469 3.652053 2.465044 0.320469 3.652050 1.850772 0.225635 2.740379 16.480118 -4.657486 -7.677480 -5.752968 -5.759944 -15.653112 0.617433 -12.869947 -15.945302 -18.945860 -76.619020 -5.972031 17.940562 1.830725 -0.414414 -12.618508 18.792009 23.786001 8.949781 4.852898 -19.925257 -0.337403 76.442528 -13.040114 5.771547 -1.297965 0.288066 13.624025 -20.219563 -17.105063 9.480508 0.133640 -5.992827 5.385659 -1.687057 -1.493483 -6.427529 1.856276 0.513395 0.014331 -0.029088 -0.022152 8.050096 -0.422056 -2.127777 5.150426 -0.047213 -5.504769 -5.081327 -0.732533 3.831311 0.022898 0.103809 0.025282 
-19.331696 -7.935734 83.045486 3.272872 7.359531 -112.353265 5.509222 0.914574 8.250688 2.461004 0.309748 3.653288 2.461004 0.309747 3.653293 1.847679 0.217613 2.741258 16.473617 -4.625593 -7.641182 -5.762027 -5.714056 -15.575664 0.586612 -12.853808 -15.938248 -18.874048 -76.431825 -5.901756 18.204642 1.787171 -0.441580 -12.337075 18.449550 23.406852 8.917385 4.879748 -19.935135 -0.561557 76.461796 -12.826215 5.606107 -1.301999 0.301976 14.122838 -19.485538 -16.439779 9.574267 0.120002 -6.082534 5.293283 -1.689771 -1.524495 -6.419228 1.864976 0.499918 0.018352 -0.020928 -0.018321 8.028228 -0.413263 -2.122365 5.239255 -0.083787 -5.622718 -5.120907 -0.728813 3.801480 0.019373 0.094433 0.021923 
-19.343122 -7.916808 83.042885 3.259215 7.385423 -112.229686 5.498789 0.895047 8.254539 2.456150 0.300035 3.655820 2.456150 0.300035 3.655814 1.843982 0.210347 2.743115 16.478818 -4.604322 -7.603895 -5.750887 -5.689119 -15.499801 0.555291 -12.838768 -15.937227 -18.704495 -76.230648 -5.706914 18.482048 1.739729 -0.445205 -12.028720 18.039182 22.966030 8.875700 4.918404 -19.954848 -0.679161 76.468612 -12.725467 5.360895 -1.314544 0.290342 14.700538 -18.620667 -15.639421 9.680048 0.107535 -6.182334 5.169469 -1.695532 -1.540681 -6.397119 1.870052 0.489852 0.023275 -0.011067 -0.016203 8.009933 -0.404260 -2.111778 5.313057 -0.120039 -5.751018 -5.151957 -0.722569 3.789560 0.015691 0.083416 0.019525 
-19.350630 -7.902134 83.041733 3.241069 7.407445 -112.104264 5.479768 0.878191 8.258228 2.448773 0.292105 3.658834 2.448773 0.292105 3.658835 1.838403 0.204431 2.745344 16.500144 -4.592588 -7.565888 -5.711217 -5.683566 -15.425422 0.540424 -12.817387 -15.948787 -18.454662 -76.026836 -5.392857 18.721463 1.676747 -0.431816 -11.713734 17.578067 22.465045 8.847969 4.986419 -20.021569 -0.858693 76.414941 -12.560068 5.041372 -1.334091 0.207560 15.329291 -17.499021 -14.592617 9.789605 0.096283 -6.237541 5.015749 -1.703272 -1.580229 -6.353907 1.872293 0.453779 0.026784 -0.000409 -0.014043 7.988447 -0.384118 -2.149660 5.374976 -0.161262 -5.823288 -5.167341 -0.711085 3.815685 0.008049 0.072784 0.016683 
-19.356426 -7.895579 83.042847 3.224244 7.432321 -111.983417 5.456991 0.862920 8.265107 2.439746 0.284916 3.663100 2.439746 0.284917 3.663103 1.831592 0.199076 2.748510 16.540795 -4.586065 -7.524859 -5.636538 -5.690674 -15.346576 0.543791 -12.809043 -15.947957 -18.145449 -75.772698 -4.990889 18.857495 1.569407 -0.365494 -11.353403 17.073026 21.886740 8.867536 5.048406 -20.113724 -1.336714 76.312973 -12.135496 4.707523 -1.322548 0.065561 16.013589 -16.083794 -13.429039 9.908626 0.089511 -6.256325 4.837919 -1.711368 -1.651828 -6.290252 1.867852 0.423874 0.027124 0.008010 -0.010737 7.974864 -0.361279 -2.244073 5.415781 -0.202581 -5.833783 -5.166093 -0.690213 3.794193 0.000397 0.061427 0.011165 
-19.360172 -7.893024 83.045067 3.210300 7.447842 -111.868533 5.434423 0.846065 8.274066 2.430119 0.277101 3.668653 2.430119 0.277101 3.668651 1.824327 0.193250 2.752638 16.593212 -4.581475 -7.478395 -5.540504 -5.704471 -15.258016 0.586329 -12.811922 -15.921320 -18.022267 -75.469362 -4.705984 18.926075 1.418974 -0.228261 -10.911031 16.524188 21.207287 8.868128 5.128101 -20.220007 -2.181016 76.177892 -11.349045 4.376500 -1.267060 -0.079429 16.686782 -14.595699 -12.293214 10.028751 0.075157 -6.264506 4.633350 -1.714602 -1.759957 -6.207686 1.854235 0.420327 0.025546 0.016617 -0.008121 7.966868 -0.342802 -2.339609 5.428630 -0.232507 -5.833211 -5.150360 -0.674585 3.784362 -0.005413 0.048679 0.007386 
-19.363493 -7.892188 83.047348 3.198281 7.461492 -111.763048 5.413888 0.826666 8.285821 2.420685 0.268769 3.674950 2.420685 0.268769 3.674950 1.817204 0.187032 2.757322 16.654622 -4.578009 -7.427426 -5.428101 -5.722801 -15.161278 0.600638 -12.783158 -15.939992 -17.968472 -75.166758 -4.488745 19.010744 1.245038 -0.010231 -10.440590 15.923671 20.350479 8.850847 5.200366 -20.303733 -3.012114 76.026706 -10.585936 3.984807 -1.156341 -0.184100 17.312834 -13.227957 -11.273836 10.153664 0.056960 -6.275995 4.411447 -1.706999 -1.883358 -6.112569 1.827230 0.446677 0.023118 0.026270 -0.006267 7.974108 -0.331264 -2.415216 5.407573 -0.254925 -5.828632 -5.120731 -0.651753 3.790136 -0.007750 0.032509 0.005741 
-19.368629 -7.894412 83.049545 3.185863 7.464690 -111.670922 5.389977 0.807946 8.299577 2.409391 0.260475 3.681918 2.409391 0.260475 3.681921 1.808687 0.180852 2.762515 16.722446 -4.574088 -7.371254 -5.303869 -5.742752 -15.054572 0.560498 -12.760705 -15.951145 -18.012344 -74.814634 -4.407312 19.101937 1.046668 0.323483 -9.876073 15.277262 19.193100 8.833861 5.254041 -20.377198 -3.581268 75.885061 -10.083441 3.539154 -1.070256 -0.261314 17.699803 -11.999639 -10.310012 10.274817 0.037806 -6.277035 4.173053 -1.694776 -2.015322 -6.007235 1.790499 0.488597 0.021406 0.037189 -0.005095 7.984547 -0.318993 -2.478205 5.362396 -0.282017 -5.820542 -5.082633 -0.623361 3.763012 -0.008049 0.017690 0.004015 
-19.376129 -7.901308 83.051796 3.170446 7.453529 -111.594841 5.359518 0.793218 8.318777 2.395238 0.253445 3.691375 2.395237 0.253445 3.691374 1.798034 0.175626 2.769569 16.792162 -4.570515 -7.317234 -5.176060 -5.762693 -14.951810 0.580169 -12.732974 -15.985848 -18.075971 -74.461814 -4.253362 19.185682 0.850983 0.783604 -9.050172 14.345494 17.647805 8.824581 5.287909 -20.437562 -3.735930 75.777390 -9.994432 3.046522 -1.099423 -0.337981 17.942692 -10.664460 -9.261199 10.389656 0.025461 -6.269009 3.914354 -1.688750 -2.141686 -5.888730 1.750697 0.531329 0.020159 0.048475 -0.003426 8.000846 -0.300794 -2.534627 5.280546 -0.312746 -5.821547 -5.031642 -0.598750 3.749225 -0.004932 0.006954 0.000870 
-19.385004 -7.913528 83.054405 3.151503 7.424230 -111.534831 5.322531 0.780185 8.339335 2.378400 0.247000 3.701638 2.378400 0.247000 3.701639 1.785370 0.170854 2.777235 16.858855 -4.564672 -7.265130 -5.053462 -5.777420 -14.851819 0.576645 -12.703122 -16.035372 -18.314013 -74.069659 -4.247151 19.178623 0.650870 1.376126 -7.830863 13.100509 15.782450 8.827995 5.310917 -20.502739 -3.823262 75.689103 -9.980718 2.516078 -1.242651 -0.430874 18.245828 -9.084556 -8.096355 10.488217 0.017993 -6.277970 3.647932 -1.683217 -2.228901 -5.761516 1.705117 0.566665 0.018553 0.060988 -0.002203 8.016871 -0.282912 -2.559937 5.163441 -0.338625 -5.850825 -4.964690 -0.581971 3.754516 -0.000484 -0.000911 -0.001466 
